<?xml version="1.0" encoding="UTF-8"?>
<svg id="Layer_2" data-name="Layer 2" xmlns="http://www.w3.org/2000/svg" xmlns:xlink="http://www.w3.org/1999/xlink" viewBox="0 0 410.98 119.27">
  <defs>
    <style>
      .cls-1 {
        fill: #000;
      }

      .cls-1, .cls-2, .cls-3, .cls-4 {
        stroke-width: 0px;
      }

      .cls-2 {
        fill: url(#radial-gradient-2);
      }

      .cls-3 {
        fill: url(#radial-gradient);
      }

      .cls-4 {
        fill: #fff;
      }
    </style>
    <radialGradient id="radial-gradient" cx=".31" cy="842.11" fx=".31" fy="842.11" r="167.68" gradientTransform="translate(0 842.11) scale(1 -1)" gradientUnits="userSpaceOnUse">
      <stop offset="0" stop-color="#f5983a"/>
      <stop offset="1" stop-color="#f28835"/>
    </radialGradient>
    <radialGradient id="radial-gradient-2" cx=".25" cy="841.99" fx=".25" fy="841.99" r="168.32" gradientTransform="translate(0 842.11) scale(1 -1)" gradientUnits="userSpaceOnUse">
      <stop offset="0" stop-color="#fff" stop-opacity=".1"/>
      <stop offset="1" stop-color="#fff" stop-opacity="0"/>
    </radialGradient>
  </defs>
  <g id="Layer_1-2" data-name="Layer 1">
    <path class="cls-1" d="M180.24,57.26c7.26-3.63,9.7-7.95,8.47-14.74-.98-5.4-4.26-9.05-10.34-9.7-8.62-.92-17.32-1.06-26.28-1.54v54.6c6.96,0,14,.03,21.03-.01,5.12-.03,9.91-1.16,13.63-4.99,6-6.18,5.6-19.99-5.16-22.88-.44-.12-.83-.45-1.35-.73ZM160.87,60.56c5.15.37,9.91.31,14.5,1.17,4.49.85,6.03,3.37,6.02,7.69,0,4.46-1.75,7.4-6.07,8.18-4.67.85-9.52.76-14.45,1.09v-18.13ZM160.9,38.03c5.27.58,10.14.74,14.82,1.77,3.44.76,4.73,3.82,4.49,7.31-.24,3.41-2.18,5.84-5.39,6.34-4.5.69-9.11.66-13.91.95v-16.36Z"/>
    <path class="cls-1" d="M304.31,82.63c-3.96,1.2-7.05,3.74-7.77,8.3-.91,5.74,2.62,10.7,8.78,11.94,7.03,1.42,14.14,1.64,21.04-.8,4.98-1.76,8.61-4.99,9.59-10.49,1.31-7.34-2.61-12.58-10.08-13.15-4.1-.31-8.23-.11-12.34-.27-2.14-.08-4.63-.22-4.36-3.29.23-2.63,1.93-3.86,4.7-3.54,1.22.14,2.49-.04,3.73-.18,11.9-1.3,16.64-8.98,12.46-20.23,1.96-2.18,8.51.66,6.36-6.27-1.16-.06-2.49-.1-3.81-.19-4.96-.33-9.94-.47-14.87-1.06-12.21-1.45-21.04,7.62-17.42,18.37.93,2.75,3.35,5,5.12,7.54-.98,1.55-3.16,3.57-3.43,5.82-.27,2.24,1.37,4.72,2.31,7.5ZM316.72,85.48c.01.07.03.14.04.21,2.11.11,4.38-.22,6.28.46,1.85.67,4.11,2.06,4.78,3.71,1.08,2.67-.48,5.09-3.14,6.38-5.12,2.49-10.44,3.03-15.93,1.35-2.58-.79-4.45-2.22-4.43-5.23.02-2.99,1.53-5.08,4.34-5.78,2.62-.65,5.37-.76,8.06-1.11ZM308.02,58.14c-.05-5.61,2.49-8.44,7.57-8.45,5.03,0,7.73,2.95,7.69,8.43-.04,4.95-2.91,8.23-7.21,8.23-5,0-7.99-3.05-8.04-8.21Z"/>
    <path class="cls-1" d="M262.96,82.28c-.44.23-.83.47-1.26.65-5.04,2.23-7.48,5.72-7.14,10.21.36,4.72,3.78,8.73,8.94,9.75,7.03,1.38,14.11,1.52,21.04-.8,7.07-2.37,10.89-8.76,9.45-15.75-.97-4.69-4.38-7.53-9.99-7.92-3.97-.27-7.98-.12-11.96-.25-2.25-.08-4.99-.06-4.76-3.29.2-2.84,2.26-3.7,5.09-3.58,2.46.1,5.02-.17,7.4-.8,8.82-2.31,11.97-9.74,8.35-19.85,2.17-.52,4.31-1.02,6.59-1.56v-4.42c-1.24-.07-2.44-.13-3.65-.21-5.08-.34-10.18-.5-15.24-1.07-12.11-1.36-20.74,7.32-17.43,18.08.89,2.88,3.38,5.26,5.25,8.04-4.97,5.68-5.08,6.77-.67,12.77ZM274.85,85.37l.07.32c2.11.11,4.38-.23,6.28.46,1.85.67,4.09,2.06,4.78,3.71,1.12,2.68-.47,5.08-3.12,6.36-5.24,2.54-10.76,3.34-16.21,1.1-1.7-.7-3.37-2.81-3.95-4.63-.84-2.67.85-5.02,3.44-5.82,2.79-.87,5.8-1.03,8.71-1.5ZM273.7,49.7c5.05-.02,7.75,2.9,7.72,8.38-.02,5-2.83,8.25-7.15,8.27-5.08.03-7.96-2.91-8.01-8.16-.05-5.8,2.29-8.47,7.44-8.49Z"/>
    <path class="cls-1" d="M349.97,67.13h27.08c.75-7.4.19-14.3-5.57-19.37-5.47-4.82-12.11-5.02-18.65-2.52-7.31,2.79-10.62,8.85-11.28,16.28-.58,6.51-.24,12.9,4.07,18.51,6.63,8.64,22.04,7.73,28.29,4.25,1.36-.76,1.27-4.12,1.93-6.59-4.41.7-7.83,1.27-11.25,1.79-9.07,1.37-13.95-2.6-14.62-12.34ZM350.47,60.99c.57-6.85,4.38-10.7,10.02-10.42,5.21.26,8.35,4.08,8.4,10.42h-18.42Z"/>
    <path class="cls-1" d="M214.03,68.25c.12,5.07,2.26,12.2,9.72,16.09,6.81,3.55,13.99,3.4,20.72-.65,6.5-3.91,9.93-13.76,8.23-22.98-2.13-11.59-9.92-17.27-22.1-16.11-10.27.98-16.63,8.95-16.57,23.65ZM244.29,64.98c-.25,2.27-.28,4.16-.69,5.96-1.34,5.88-5.07,8.99-10.36,8.85-5.44-.14-9.27-3.25-9.94-9.21-.47-4.11-.23-8.48.66-12.52,1.08-4.93,4.54-6.93,9.72-6.87,4.98.05,8.3,2.43,9.58,7.21.6,2.26.74,4.64,1.03,6.59Z"/>
    <path class="cls-1" d="M198.58,85.85h7.87V28.47h-7.87v57.38Z"/>
    <path class="cls-1" d="M410.09,51.87c.31-2.46.58-4.67.89-7.19-7.14-1.64-12.33,1.11-16.63,7.26-.61-2.82-1.04-4.84-1.51-7.05h-6.18v40.83h8.04c0-6.93-.08-13.75.02-20.58.11-7.04,3.04-11.32,8.78-12.73,2.01-.49,4.18-.36,6.58-.53Z"/>
    <g id="B">
      <g>
        <path class="cls-3" d="M119.27,109.21c0,5.59-4.47,10.06-10.06,10.06H10.06c-5.59,0-10.06-4.47-10.06-10.06V10.06C0,4.47,4.47,0,10.06,0h99.51c5.22,0,9.69,4.47,9.69,10.06,0,0,0,99.14,0,99.14Z"/>
        <path class="cls-4" d="M94.3,49.57h-4.85c-2.61,0-4.85-2.24-4.85-4.85,0-13.79-11.18-24.97-24.97-24.97h-14.91c-13.79,0-24.97,11.18-24.97,24.97v29.82c0,13.79,11.18,24.97,24.97,24.97h29.82c13.79,0,24.97-11.18,24.97-24.97v-19.75c0-2.98-2.24-5.22-5.22-5.22ZM44.35,39.88h17.89c2.61,0,4.85,2.24,4.85,4.85s-2.24,4.85-4.85,4.85h-17.89c-2.61,0-4.85-2.24-4.85-4.85s2.24-4.85,4.85-4.85ZM74.92,79.39h-30.19c-2.61,0-4.85-2.24-4.85-4.85s2.24-4.85,4.85-4.85h30.19c2.61,0,4.85,2.24,4.85,4.85s-2.24,4.85-4.85,4.85Z"/>
        <path class="cls-2" d="M119.27,109.21c0,5.59-4.47,10.06-10.06,10.06H10.06c-5.59,0-10.06-4.47-10.06-10.06V10.06C0,4.47,4.47,0,10.06,0h99.51c5.22,0,9.69,4.47,9.69,10.06,0,0,0,99.14,0,99.14Z"/>
      </g>
    </g>
  </g>
</svg>