<?xml version="1.0" encoding="UTF-8"?>
<svg id="Layer_1" data-name="Layer 1" xmlns="http://www.w3.org/2000/svg" version="1.1" viewBox="0 0 64 64">
  <defs>
    <style>
      .cls-1 {
        fill: #000;
        stroke-width: 0px;
      }
    </style>
  </defs>
  <path class="cls-1" d="M56,10c0,7.4-4.6,12-12,12h-12v-4h-12v4H0v6h8c-1.3,2.2-2,4.9-2,8,0,8.6,5.4,14,14,14h12c8.6,0,14-5.4,14-14s-.7-5.8-2-8h0c7.4,0,12,4.6,12,12h8V10h-8ZM28,28v16h-4v-16h4ZM12,36c0-4.9,3.1-8,8-8v16c-4.9,0-8-3.1-8-8ZM40,36c0,4.9-3.1,8-8,8v-16c4.9,0,8,3.1,8,8Z"/>
</svg>