<?xml version="1.0" encoding="UTF-8"?>
<svg id="Layer_2" data-name="Layer 2" xmlns="http://www.w3.org/2000/svg" xmlns:xlink="http://www.w3.org/1999/xlink" viewBox="0 0 165.33 185.87">
  <defs>
    <style>
      .cls-1 {
        fill: url(#linear-gradient);
      }

      .cls-1, .cls-2, .cls-3, .cls-4, .cls-5 {
        stroke-width: 0px;
      }

      .cls-2 {
        fill: url(#linear-gradient-2);
      }

      .cls-3 {
        fill: url(#radial-gradient);
      }

      .cls-4 {
        fill: #cd1972;
      }

      .cls-5 {
        fill: #fff;
      }
    </style>
    <radialGradient id="radial-gradient" cx="-3443.44" cy="-405.44" fx="-3443.44" fy="-405.44" r="50.42" gradientTransform="translate(-1270.66 -3383.7) rotate(-90) scale(1 -3.29)" gradientUnits="userSpaceOnUse">
      <stop offset=".27" stop-color="#fdd30f"/>
      <stop offset=".32" stop-color="#f7c21f"/>
      <stop offset=".4" stop-color="#f5ac1e"/>
      <stop offset=".49" stop-color="#f49f24"/>
      <stop offset=".59" stop-color="#f89623"/>
      <stop offset=".74" stop-color="#f79424"/>
    </radialGradient>
    <linearGradient id="linear-gradient" x1="40.59" y1="-1581.21" x2="148.09" y2="-1395" gradientTransform="translate(0 -1349.17) scale(1 -1)" gradientUnits="userSpaceOnUse">
      <stop offset="0" stop-color="#a81f24"/>
      <stop offset=".21" stop-color="#c46043"/>
      <stop offset=".46" stop-color="#e4ad64"/>
      <stop offset=".65" stop-color="#f6d878"/>
      <stop offset=".74" stop-color="#fce883"/>
    </linearGradient>
    <linearGradient id="linear-gradient-2" x1="72.22" y1="-1491.24" x2="131.75" y2="-1327.67" gradientTransform="translate(0 -1349.17) scale(1 -1)" gradientUnits="userSpaceOnUse">
      <stop offset=".05" stop-color="#a81f24"/>
      <stop offset=".09" stop-color="#be4d35"/>
      <stop offset=".13" stop-color="#ca6f46"/>
      <stop offset=".17" stop-color="#d79056"/>
      <stop offset=".21" stop-color="#e2af64"/>
      <stop offset=".27" stop-color="#ebc06a"/>
      <stop offset=".32" stop-color="#f5d475"/>
      <stop offset=".4" stop-color="#fae07e"/>
      <stop offset=".5" stop-color="#fce782"/>
      <stop offset=".74" stop-color="#fce883"/>
    </linearGradient>
  </defs>
  <g id="Layer_1-2" data-name="Layer 1">
    <path class="cls-4" d="M.81,79.76c-7.75-13.39,42.16-25.54,53.9-41C66.45,23.29,67.91,2.12,85.14.1c17.23-2.02,20.9,26.22,33.37,35.96,12.46,9.75,29.87,8.52,41.98,15.58,12.1,7.06,2.39,21.05-39.41,42.22-41.8,21.17-110.73,2.35-120.26-14.12h0v.02Z"/>
    <path class="cls-3" d="M9.25,81.11c-2.18-4.92,22.37-4.69,37.4-3.35,15.03,1.34,31.53,10.07,53.53-2.7,11.23-6.52,47.3-20.62,56.12-15.58s-37.42,37.62-66.75,38.96-74.79-4.89-80.3-17.32h0Z"/>
    <path class="cls-1" d="M72.11,107.21s-16.4,35.49-13.61,59.12,15.85,19.89,32.33,18.34c16.48-1.56,31.71-7.77,29.23-23.31s-13.34-34.49-18.02-52.84c-4.68-18.36-13.75-23.42-19.63-20.89s-10.29,19.59-10.29,19.59h0Z"/>
    <path class="cls-2" d="M71.11,80.14c-6.56,20.63-11.46,27.69-6.41,30.22,5.6,2.79,9.72-8.71,16.36-10.88,0,0,17.84,13.99,26.54,7.15,7.84-6.16-4.48-15.92-9.37-32.24l-27.13,5.75h.01Z"/>
    <path class="cls-4" d="M98.71,75.87c-.16-.49,1.55-13.57,1.39-14.07l-38.31,7.85c-.16.52,8.99,11.52,8.83,12.03,8.41.75,17.62-.12,28.09-5.81Z"/>
    <path class="cls-5" d="M72.34,69.08c-5.7-3.03-.7-11.38,3.03-10.49s7.15,1.96,8.94,6.44-7.07,6.65-11.97,4.05Z"/>
    <path class="cls-5" d="M105.68,51.65c-4.83-6.75,8.39-8.7,13.06-7.89s6.53,5.48,8.63,7.57c2.1,2.09.24,7.92-4.43,9.31s-15.85-7.05-17.25-9h0Z"/>
    <path class="cls-5" d="M44.13,60.8c4.26,5.68,7.93-1.03,9.79-4.44s4.43-4.76.93-7.35-8.63-.14-10.72,3.18-2.33,5.51,0,8.61Z"/>
    <path class="cls-5" d="M80.96,32.2c2.34-3.74,4.8-2.79,5.43,0s.07,5.6-3.72,4.2-1.71-4.2-1.71-4.2Z"/>
    <path class="cls-5" d="M17.06,61.8c4.89-2.53,5.15-.33,6.31,2.57,1.16,2.9-1.4,7.72-5.36,8.22s-6.31-.7-6.53-4.12,5.58-6.66,5.58-6.66h0Z"/>
    <path class="cls-5" d="M99.5,16.08c1.15.5,3.21-.1,4.67-1.42-1.73-3.07-3.54-5.97-5.56-8.36-1.58.99-2.26,3.02-2.26,3.02-.47,5.13,1.28,5.95,3.15,6.76Z"/>
    <path class="cls-5" d="M150.11,47.47c-.44,2.52.63,5.21,2.43,5.72,2.48.71,5.08-.14,6.5-2.33-2.77-1.43-5.78-2.49-8.92-3.39h0Z"/>
    <path class="cls-5" d="M68.15,16.59c-.9.81-1.89,1.69-2.7,2.65-.48,1.01-.97,2.05-1.46,3.09-.09.95.14,1.97.89,3.08,2.57,3.77,4.88,2.65,4.88,2.65,6.77-1.22,5.37-5.18,4.22-8.68-1.17-3.5-3.33-5.03-5.83-2.79h.01-.01Z"/>
  </g>
</svg>