<?xml version="1.0" encoding="UTF-8"?>
<svg id="Layer_1" data-name="Layer 1" xmlns="http://www.w3.org/2000/svg" version="1.1" viewBox="0 0 64 64">
  <defs>
    <style>
      .cls-1 {
        fill: #000;
        stroke-width: 0px;
      }
    </style>
  </defs>
  <path class="cls-1" d="M17.2,34.5H0v-4.9h17.2v4.9ZM11.9,17.6l-4.3-2.5-2.5,4.3,4.3,2.5,2.5-4.3ZM13.9,58.5l4.3,2.5,8.6-14.9-4.3-2.5-8.6,14.9ZM26.7,18L18.1,3.1l-4.3,2.5,8.6,14.9,4.3-2.5ZM58.8,19.4l-2.5-4.3-4.3,2.5,2.5,4.3s4.3-2.5,4.3-2.5ZM50.1,5.5l-4.3-2.5-8.6,14.9,4.3,2.5s8.6-14.9,8.6-14.9ZM12.6,40.3l2.5,4.3,11.7-6.8-2.5-4.3-11.7,6.8ZM51.3,23.7l-2.5-4.3-11.7,6.8,2.5,4.3,11.7-6.8ZM5.2,44.6l2.5,4.3,4.3-2.5-2.5-4.3-4.3,2.5ZM52.1,46.4l4.3,2.5,2.5-4.3-4.3-2.5-2.5,4.3ZM37.2,37.8l11.7,6.8,2.5-4.3-11.7-6.8-2.5,4.3ZM46.8,29.5v4.9h17.2v-4.9h-17.2ZM12.7,23.7l11.7,6.8,2.5-4.3-11.7-6.8s-2.5,4.3-2.5,4.3ZM37.3,46l8.6,14.9,4.3-2.5-8.6-14.9-4.3,2.5ZM29.5,61.5h4.9v-4.9h-4.9v4.9ZM29.5,7.4h4.9V2.5h-4.9v4.9ZM29.5,52.9h4.9v-13.5h-4.9v13.5ZM29.5,24.6h4.9v-13.5h-4.9v13.5Z"/>
</svg>