<?xml version="1.0" encoding="UTF-8"?><svg id="Layer_1" xmlns="http://www.w3.org/2000/svg" viewBox="0 0 64 52.8"><defs><style>.cls-1{fill:#000;stroke-width:0px;}</style></defs><path class="cls-1" d="M26.67,1.07h5.33v50.67h-5.33l-14.67-14.67H0V15.73h12L26.67,1.07ZM43.64,9.43l-5.65,5.65c3.12,3.12,4.68,7.21,4.68,11.32s-1.56,8.19-4.68,11.32l5.65,5.65c4.68-4.68,7.03-10.83,7.03-16.97s-2.35-12.28-7.03-16.97ZM53.07,0l-5.65,5.65c5.73,5.73,8.59,13.24,8.59,20.75s-2.87,15.01-8.59,20.75l5.65,5.65c7.29-7.29,10.93-16.84,10.93-26.4S60.36,7.29,53.07,0Z"/></svg>