<?xml version="1.0" encoding="UTF-8"?><svg id="Layer_1" xmlns="http://www.w3.org/2000/svg" viewBox="0 0 64 64"><defs><style>.cls-1{fill:#000;stroke-width:0px;}</style></defs><path class="cls-1" d="M25.09,34.83h-14.27s5.84,5.84,5.84,5.84l-4,4L0,32l12.67-12.67,4,4-5.84,5.84h14.27s0,5.65,0,5.65ZM51.33,19.33l-4,4,5.84,5.84h-14.27v5.65h14.27s-5.84,5.84-5.84,5.84l4,4,12.67-12.67s-12.67-12.67-12.67-12.67ZM34.83,53.17v-14.27h-5.65s0,14.27,0,14.27l-5.84-5.84-4,4,12.67,12.67,12.67-12.67-4-4s-5.84,5.84-5.84,5.84ZM29.17,10.83v14.27h5.65v-14.27s5.84,5.84,5.84,5.84l4-4L32,0l-12.67,12.67,4,4,5.84-5.84Z"/></svg>